<svg width="299" height="202" viewBox="0 0 299 202" fill="none" xmlns="http://www.w3.org/2000/svg">
<path d="M293.057 98.6389C300.104 84.3854 300.044 67.5024 292.897 53.1529C287.066 41.4478 277.023 32.4567 264.883 28.0739L248.945 22.3201C245.151 20.9507 241.157 20.2735 237.146 20.3199L236.681 20.3253C227.731 20.4287 219.09 16.8136 212.752 10.3144C199.555 -3.21692 178.071 -3.00638 165.407 10.7783L162.99 13.4099C158.28 18.5363 152.214 22.1686 145.507 23.878L132.763 27.1263L71.5105 38.9901C66.9927 39.8651 62.4039 40.3319 57.7973 40.3852L42.7716 40.5588C32.1067 40.6821 21.948 45.0163 14.437 52.6479L10.5514 56.5958C0.519647 66.7885 -1.9928 82.4018 4.29419 95.4805L11.8244 111.145C14.1506 115.985 19.3938 118.63 24.5496 117.565C34.4443 115.522 42.0492 126.561 36.753 135.279L32.7769 141.825C29.5245 147.178 29.9342 154.067 33.8018 159.056L35.3139 161.006C41.3911 168.846 52.4086 170.483 60.3026 164.719L95.9515 138.691C104.238 132.64 115.993 136.417 119.497 146.255C121.155 150.91 120.572 156.065 117.923 160.17L115.714 163.594C109.008 173.988 111.346 187.967 121.079 195.68L121.544 196.049C129.489 202.345 140.378 203.029 148.907 197.767L162.296 189.509C167.499 186.298 172.027 182.078 175.623 177.085L196.466 148.144C202.021 140.432 211.22 136.357 220.61 137.449C230.506 138.599 238.989 145.294 242.57 154.778L244.736 160.516C249.016 171.851 260.828 178.316 272.4 175.657C287.269 172.241 295.026 155.617 288.298 141.586L286.207 137.224C282.414 129.314 282.451 120.093 286.306 112.294L293.057 98.6389Z" fill="#EAFFF3"/>
<path d="M293.057 98.6389C300.104 84.3854 300.044 67.5024 292.897 53.1529C287.066 41.4478 277.023 32.4567 264.883 28.0739L248.945 22.3201C245.151 20.9507 241.157 20.2735 237.146 20.3199L236.681 20.3253C227.731 20.4287 219.09 16.8136 212.752 10.3144C199.555 -3.21692 178.071 -3.00638 165.407 10.7783L162.99 13.4099C158.28 18.5363 152.214 22.1686 145.507 23.878L132.763 27.1263L71.5105 38.9901C66.9927 39.8651 62.4039 40.3319 57.7973 40.3852L42.7716 40.5588C32.1067 40.6821 21.948 45.0163 14.437 52.6479L10.5514 56.5958C0.519647 66.7885 -1.9928 82.4018 4.29419 95.4805L11.8244 111.145C14.1506 115.985 19.3938 118.63 24.5496 117.565C34.4443 115.522 42.0492 126.561 36.753 135.279L32.7769 141.825C29.5245 147.178 29.9342 154.067 33.8018 159.056L35.3139 161.006C41.3911 168.846 52.4086 170.483 60.3026 164.719L95.9515 138.691C104.238 132.64 115.993 136.417 119.497 146.255C121.155 150.91 120.572 156.065 117.923 160.17L115.714 163.594C109.008 173.988 111.346 187.967 121.079 195.68L121.544 196.049C129.489 202.345 140.378 203.029 148.907 197.767L162.296 189.509C167.499 186.298 172.027 182.078 175.623 177.085L196.466 148.144C202.021 140.432 211.22 136.357 220.61 137.449C230.506 138.599 238.989 145.294 242.57 154.778L244.736 160.516C249.016 171.851 260.828 178.316 272.4 175.657C287.269 172.241 295.026 155.617 288.298 141.586L286.207 137.224C282.414 129.314 282.451 120.093 286.306 112.294L293.057 98.6389Z" fill="url(#paint0_linear_14_118)" fill-opacity="0.1"/>
<defs>
<linearGradient id="paint0_linear_14_118" x1="251.502" y1="22.8303" x2="146.541" y2="200.381" gradientUnits="userSpaceOnUse">
<stop stop-color="#398495"/>
<stop offset="1" stop-color="#398495" stop-opacity="0"/>
</linearGradient>
</defs>
</svg>
