<svg width="963" height="1492" viewBox="0 0 963 1492" fill="none" xmlns="http://www.w3.org/2000/svg">
<path d="M767.225 0.650696C768.522 0.178575 769.957 0.847665 770.429 2.14515C770.901 3.44263 770.232 4.87718 768.934 5.3493L767.225 0.650696ZM1.1178 1456.27C0.141479 1455.29 0.141479 1453.71 1.1178 1452.73L17.0277 1436.82C18.004 1435.85 19.5869 1435.85 20.5632 1436.82C21.5396 1437.8 21.5396 1439.38 20.5632 1440.36L6.42108 1454.5L20.5632 1468.64C21.5396 1469.62 21.5396 1471.2 20.5632 1472.18C19.5869 1473.15 18.004 1473.15 17.0277 1472.18L1.1178 1456.27ZM301.736 1151.5L299.242 1151.68L299.236 1151.59V1151.5H301.736ZM300.271 588.5L302.542 589.546L300.271 588.5ZM767.695 23.6525C768.121 24.9658 767.402 26.376 766.089 26.8024C764.776 27.2287 763.366 26.5098 762.939 25.1966L767.695 23.6525ZM783.831 68.8745C783.157 67.6699 783.586 66.1464 784.791 65.4716C785.995 64.7969 787.519 65.2264 788.194 66.431L783.831 68.8745ZM812.5 107.782C813.215 108.963 812.837 110.5 811.655 111.215C810.474 111.93 808.937 111.552 808.222 110.37L812.5 107.782ZM833.197 151.363C832.478 150.184 832.852 148.646 834.031 147.927C835.21 147.209 836.748 147.582 837.467 148.761L833.197 151.363ZM862.258 189.904C862.963 191.091 862.571 192.625 861.384 193.329C860.196 194.034 858.662 193.642 857.958 192.455L862.258 189.904ZM881.97 233.959C881.295 232.755 881.723 231.231 882.926 230.555C884.13 229.88 885.654 230.308 886.33 231.512L881.97 233.959ZM909.122 273.814C909.753 275.042 909.268 276.549 908.04 277.18C906.812 277.81 905.305 277.326 904.674 276.097L909.122 273.814ZM925.405 319.25C924.845 317.988 925.415 316.511 926.677 315.952C927.939 315.392 929.416 315.961 929.976 317.223L925.405 319.25ZM947.692 362.072C948.136 363.379 947.436 364.799 946.129 365.243C944.822 365.688 943.402 364.988 942.958 363.681L947.692 362.072ZM955.065 409.646C954.83 408.285 955.742 406.991 957.103 406.756C958.463 406.52 959.757 407.432 959.992 408.793L955.065 409.646ZM961.663 457.204C961.47 458.571 960.205 459.523 958.838 459.33C957.47 459.137 956.519 457.872 956.712 456.505L961.663 457.204ZM938.341 498.492C939.255 497.457 940.835 497.358 941.87 498.271C942.905 499.185 943.004 500.765 942.091 501.8L938.341 498.492ZM901.237 527.84C899.933 528.294 898.508 527.606 898.053 526.303C897.598 524.999 898.286 523.573 899.59 523.119L901.237 527.84ZM853.265 532.102C854.641 531.995 855.845 533.023 855.953 534.399C856.06 535.776 855.032 536.979 853.656 537.087L853.265 532.102ZM801.645 536.798C800.268 536.705 799.226 535.513 799.319 534.135C799.412 532.758 800.604 531.716 801.981 531.809L801.645 536.798ZM747.201 527.454C748.577 527.569 749.599 528.777 749.484 530.153C749.369 531.529 748.161 532.551 746.785 532.436L747.201 527.454ZM691.963 528.04C690.586 527.938 689.553 526.738 689.656 525.361C689.759 523.984 690.959 522.951 692.335 523.054L691.963 528.04ZM637.368 519.434C638.746 519.511 639.802 520.69 639.725 522.069C639.648 523.447 638.469 524.503 637.09 524.426L637.368 519.434ZM582.227 522.094C580.846 522.056 579.759 520.906 579.797 519.526C579.835 518.146 580.985 517.058 582.365 517.096L582.227 522.094ZM527.268 516.586C528.648 516.57 529.781 517.676 529.797 519.057C529.813 520.438 528.706 521.57 527.326 521.586L527.268 516.586ZM472.534 523.688C471.156 523.784 469.962 522.744 469.867 521.367C469.772 519.99 470.811 518.796 472.188 518.7L472.534 523.688ZM417.287 524.824C418.649 524.603 419.934 525.528 420.155 526.891C420.377 528.254 419.451 529.538 418.088 529.76L417.287 524.824ZM365.137 542.521C363.832 542.972 362.408 542.28 361.957 540.975C361.506 539.67 362.199 538.246 363.504 537.795L365.137 542.521ZM314.836 564.766C315.851 563.83 317.432 563.893 318.369 564.908C319.305 565.922 319.242 567.504 318.227 568.44L314.836 564.766ZM294.31 611.288C293.901 612.607 292.501 613.346 291.182 612.938C289.863 612.53 289.125 611.13 289.533 609.811L294.31 611.288ZM279.611 656.307C279.8 654.94 281.062 653.984 282.43 654.173C283.797 654.361 284.753 655.623 284.564 656.991L279.611 656.307ZM280.472 703.798C280.41 705.177 279.241 706.244 277.862 706.182C276.483 706.12 275.415 704.951 275.477 703.571L280.472 703.798ZM274.768 750.962C274.753 749.582 275.859 748.45 277.24 748.435C278.621 748.42 279.752 749.527 279.767 750.907L274.768 750.962ZM281.187 798.003C281.252 799.382 280.186 800.552 278.807 800.617C277.427 800.681 276.257 799.615 276.193 798.236L281.187 798.003ZM278.967 845.452C278.872 844.074 279.911 842.881 281.289 842.786C282.666 842.691 283.86 843.73 283.955 845.108L278.967 845.452ZM287.53 892.165C287.642 893.541 286.618 894.747 285.242 894.859C283.865 894.972 282.659 893.947 282.547 892.571L287.53 892.165ZM286.519 939.653C286.4 938.277 287.42 937.066 288.795 936.948C290.171 936.83 291.382 937.849 291.5 939.225L286.519 939.653ZM295.504 986.295C295.619 987.671 294.596 988.879 293.22 988.993C291.844 989.107 290.636 988.084 290.521 986.708L295.504 986.295ZM294.204 1033.77C294.105 1032.39 295.141 1031.2 296.518 1031.1C297.895 1031 299.092 1032.03 299.191 1033.41L294.204 1033.77ZM302.174 1080.59C302.247 1081.97 301.188 1083.14 299.809 1083.22C298.43 1083.29 297.253 1082.23 297.181 1080.85L302.174 1080.59ZM298.976 1127.98C298.946 1126.6 300.041 1125.46 301.422 1125.43C302.802 1125.4 303.945 1126.49 303.975 1127.87L298.976 1127.98ZM305.774 1175.67C305.849 1177.05 304.791 1178.23 303.412 1178.3C302.033 1178.38 300.856 1177.32 300.782 1175.94L305.774 1175.67ZM302.315 1223.44C302.303 1222.06 303.412 1220.93 304.792 1220.92C306.173 1220.9 307.302 1222.01 307.315 1223.39L302.315 1223.44ZM306.427 1270.91C306.359 1272.29 305.186 1273.35 303.807 1273.29C302.428 1273.22 301.365 1272.04 301.433 1270.67L306.427 1270.91ZM297.256 1318.31C297.435 1316.94 298.691 1315.98 300.06 1316.16C301.429 1316.34 302.393 1317.59 302.213 1318.96L297.256 1318.31ZM293.409 1365.94C293.07 1367.28 291.711 1368.09 290.372 1367.75C289.034 1367.42 288.223 1366.06 288.562 1364.72L293.409 1365.94ZM273.112 1409.34C273.692 1408.09 275.178 1407.54 276.431 1408.12C277.684 1408.7 278.229 1410.19 277.649 1411.44L273.112 1409.34ZM251.549 1451.96C250.625 1452.98 249.044 1453.06 248.019 1452.14C246.993 1451.22 246.911 1449.63 247.836 1448.61L251.549 1451.96ZM210.539 1476.09C211.798 1475.53 213.278 1476.09 213.846 1477.35C214.413 1478.6 213.853 1480.08 212.594 1480.65L210.539 1476.09ZM165.476 1491.62C164.097 1491.7 162.918 1490.64 162.841 1489.26C162.765 1487.89 163.82 1486.71 165.199 1486.63L165.476 1491.62ZM118.252 1483.32C119.611 1483.56 120.519 1484.85 120.279 1486.21C120.039 1487.57 118.742 1488.48 117.383 1488.24L118.252 1483.32ZM70.7367 1476.64C69.4166 1476.24 68.6746 1474.84 69.0793 1473.52C69.4841 1472.2 70.8823 1471.46 72.2023 1471.86L70.7367 1476.64ZM26.7795 1457.08C28.0988 1457.49 28.8381 1458.89 28.4307 1460.21C28.0234 1461.53 26.6238 1462.27 25.3045 1461.86L26.7795 1457.08ZM768.934 5.3493C767.841 5.74715 767.097 6.33594 766.572 7.08391C766.03 7.85607 765.625 8.938 765.46 10.4442C765.122 13.5267 765.832 17.9156 767.695 23.6525L762.939 25.1966C761.011 19.2577 760.034 14.051 760.49 9.89847C760.722 7.78721 761.335 5.8418 762.479 4.21183C763.64 2.55768 765.249 1.36953 767.225 0.650696L768.934 5.3493ZM788.194 66.431C795.18 78.9028 803.434 92.7971 812.5 107.782L808.222 110.37C799.148 95.3721 790.859 81.4207 783.831 68.8745L788.194 66.431ZM837.467 148.761C845.554 162.035 853.898 175.81 862.258 189.904L857.958 192.455C849.612 178.385 841.28 164.63 833.197 151.363L837.467 148.761ZM886.33 231.512C894.197 245.524 901.866 259.678 909.122 273.814L904.674 276.097C897.452 262.027 889.813 247.929 881.97 233.959L886.33 231.512ZM929.976 317.223C936.727 332.446 942.727 347.465 947.692 362.072L942.958 363.681C938.05 349.244 932.109 334.366 925.405 319.25L929.976 317.223ZM959.992 408.793C962.982 426.071 963.759 442.366 961.663 457.204L956.712 456.505C958.715 442.32 957.994 426.569 955.065 409.646L959.992 408.793ZM942.091 501.8C932.324 512.87 918.878 521.685 901.237 527.84L899.59 523.119C916.564 517.197 929.235 508.814 938.341 498.492L942.091 501.8ZM853.656 537.087C845.951 537.691 837.779 538 829.119 538V533C837.66 533 845.702 532.695 853.265 532.102L853.656 537.087ZM829.119 538C822.075 538 812.769 537.547 801.645 536.798L801.981 531.809C813.081 532.557 822.25 533 829.119 533V538ZM746.785 532.436C729.9 531.025 711.452 529.495 691.963 528.04L692.335 523.054C711.848 524.511 730.316 526.042 747.201 527.454L746.785 532.436ZM637.09 524.426C619.102 523.425 600.702 522.607 582.227 522.094L582.365 517.096C600.896 517.611 619.343 518.431 637.368 519.434L637.09 524.426ZM527.326 521.586C508.669 521.801 490.286 522.46 472.534 523.688L472.188 518.7C490.053 517.464 508.533 516.803 527.268 516.586L527.326 521.586ZM418.088 529.76C398.708 532.908 380.852 537.09 365.137 542.521L363.504 537.795C379.561 532.247 397.708 528.005 417.287 524.824L418.088 529.76ZM318.227 568.44C311.437 574.708 306.148 581.717 302.542 589.546L298 587.454C301.916 578.953 307.626 571.421 314.836 564.766L318.227 568.44ZM302.542 589.546C299.439 596.282 296.705 603.543 294.31 611.288L289.533 609.811C291.984 601.884 294.794 594.415 298 587.454L302.542 589.546ZM284.564 656.991C282.538 671.67 281.218 687.33 280.472 703.798L275.477 703.571C276.229 686.985 277.56 671.168 279.611 656.307L284.564 656.991ZM279.767 750.907C279.935 766.177 280.437 781.913 281.187 798.003L276.193 798.236C275.44 782.099 274.936 766.303 274.768 750.962L279.767 750.907ZM283.955 845.108C285.025 860.614 286.239 876.33 287.53 892.165L282.547 892.571C281.255 876.723 280.039 860.985 278.967 845.452L283.955 845.108ZM291.5 939.225C292.849 954.916 294.206 970.637 295.504 986.295L290.521 986.708C289.224 971.059 287.868 955.347 286.519 939.653L291.5 939.225ZM299.191 1033.41C300.341 1049.32 301.359 1065.08 302.174 1080.59L297.181 1080.85C296.368 1065.38 295.352 1049.66 294.204 1033.77L299.191 1033.41ZM303.975 1127.87C304.145 1135.85 304.236 1143.73 304.236 1151.5H299.236C299.236 1143.77 299.146 1135.93 298.976 1127.98L303.975 1127.87ZM304.229 1151.32C304.834 1159.63 305.349 1167.75 305.774 1175.67L300.782 1175.94C300.358 1168.05 299.845 1159.96 299.242 1151.68L304.229 1151.32ZM307.315 1223.39C307.466 1240.21 307.159 1256.03 306.427 1270.91L301.433 1270.67C302.16 1255.89 302.466 1240.17 302.315 1223.44L307.315 1223.39ZM302.213 1318.96C299.955 1336.18 296.994 1351.79 293.409 1365.94L288.562 1364.72C292.093 1350.78 295.02 1335.36 297.256 1318.31L302.213 1318.96ZM277.649 1411.44C270.072 1427.81 261.278 1441.17 251.549 1451.96L247.836 1448.61C257.19 1438.23 265.719 1425.31 273.112 1409.34L277.649 1411.44ZM212.594 1480.65C197.522 1487.45 181.578 1490.73 165.476 1491.62L165.199 1486.63C180.808 1485.77 196.13 1482.59 210.539 1476.09L212.594 1480.65ZM117.383 1488.24C101.07 1485.36 85.2663 1481.1 70.7367 1476.64L72.2023 1471.86C86.6257 1476.28 102.215 1480.49 118.252 1483.32L117.383 1488.24ZM25.3045 1461.86C15.5433 1458.85 7.97308 1457 2.88556 1457V1452C8.83514 1452 17.0955 1454.09 26.7795 1457.08L25.3045 1461.86Z" fill="#DAF4EA"/>
</svg>
